<svg xmlns="http://www.w3.org/2000/svg" xmlns:xlink="http://www.w3.org/1999/xlink" width="500" zoomAndPan="magnify" viewBox="0 0 375 374.999991" height="500" preserveAspectRatio="xMidYMid meet" version="1.2"><defs><clipPath id="ddd96ed4a2"><path d="M 189.316406 60.652344 L 273.878906 60.652344 L 273.878906 254 L 189.316406 254 Z M 189.316406 60.652344 "/></clipPath><clipPath id="f7111520e9"><path d="M 100 51.640625 L 264.25 51.640625 L 264.25 263 L 100 263 Z M 100 51.640625 "/></clipPath></defs><g id="545b5922fe"><g clip-rule="nonzero" clip-path="url(#ddd96ed4a2)"><path style=" stroke:none;fill-rule:nonzero;fill:#ffde59;fill-opacity:1;" d="M 189.316406 60.652344 L 273.878906 60.652344 L 273.878906 253.886719 L 189.316406 253.886719 Z M 189.316406 60.652344 "/></g><g clip-rule="nonzero" clip-path="url(#f7111520e9)"><path style=" stroke:none;fill-rule:nonzero;fill:#000000;fill-opacity:1;" d="M 264.105469 262.972656 L 178.253906 262.972656 L 178.253906 69.523438 L 194.464844 69.523438 L 180.167969 55.226562 L 102.5 132.898438 L 102.5 261.726562 L 100 261.726562 L 100 131.863281 L 180.167969 51.695312 L 197.996094 69.523438 L 259 69.523438 L 259 134.0625 L 196.964844 72.019531 L 180.753906 72.019531 L 180.753906 260.472656 L 261.609375 260.472656 L 261.609375 152.910156 L 264.105469 152.910156 Z M 200.5 72.019531 L 256.503906 128.027344 L 256.503906 72.019531 Z M 200.5 72.019531 "/></g><g style="fill:#000000;fill-opacity:1;"><g transform="translate(99.974468, 227.802661)"><path style="stroke:none" d="M 75.9375 -24.203125 C 75.9375 -19.410156 74.457031 -15.078125 71.5 -11.203125 C 68.550781 -7.328125 64.5625 -4.226562 59.53125 -1.90625 C 54.5 0.40625 48.867188 1.5625 42.640625 1.5625 C 33.222656 1.5625 24.957031 -0.953125 17.84375 -5.984375 L 15.578125 0 L 11.140625 0 L 3.359375 -27.4375 L 7.78125 -28.875 C 12.019531 -20.882812 17.070312 -14.769531 22.9375 -10.53125 C 28.800781 -6.300781 35.171875 -4.1875 42.046875 -4.1875 C 46.191406 -4.1875 49.878906 -4.960938 53.109375 -6.515625 C 56.347656 -8.078125 58.925781 -10.21875 60.84375 -12.9375 C 62.757812 -15.65625 63.71875 -18.691406 63.71875 -22.046875 C 63.71875 -25.640625 62.539062 -28.453125 60.1875 -30.484375 C 57.832031 -32.515625 53.703125 -34.25 47.796875 -35.6875 L 31.734375 -39.765625 C 30.546875 -40.085938 28.953125 -40.523438 26.953125 -41.078125 C 24.953125 -41.640625 22.8125 -42.4375 20.53125 -43.46875 C 18.257812 -44.507812 16.085938 -45.828125 14.015625 -47.421875 C 11.941406 -49.023438 10.265625 -51.003906 8.984375 -53.359375 C 7.703125 -55.710938 7.0625 -58.488281 7.0625 -61.6875 C 7.0625 -63.84375 7.5625 -66.140625 8.5625 -68.578125 C 9.5625 -71.015625 11.140625 -73.347656 13.296875 -75.578125 C 15.453125 -77.816406 18.265625 -79.632812 21.734375 -81.03125 C 25.210938 -82.425781 29.46875 -83.125 34.5 -83.125 C 39.050781 -83.125 43.125 -82.664062 46.71875 -81.75 C 50.3125 -80.832031 53.785156 -79.335938 57.140625 -77.265625 L 58.578125 -81.578125 L 62.890625 -81.578125 L 70.1875 -59.890625 L 66.359375 -58.453125 C 58.128906 -71.066406 48.304688 -77.375 36.890625 -77.375 C 33.617188 -77.375 30.644531 -76.816406 27.96875 -75.703125 C 25.289062 -74.585938 23.171875 -73.050781 21.609375 -71.09375 C 20.054688 -69.132812 19.28125 -66.957031 19.28125 -64.5625 C 19.28125 -61.363281 20.535156 -58.742188 23.046875 -56.703125 C 25.566406 -54.671875 29.742188 -52.9375 35.578125 -51.5 L 50.546875 -47.90625 C 56.210938 -46.550781 60.921875 -44.9375 64.671875 -43.0625 C 68.429688 -41.1875 71.25 -38.769531 73.125 -35.8125 C 75 -32.851562 75.9375 -28.984375 75.9375 -24.203125 Z M 75.9375 -24.203125 "/></g></g><g style="fill:#000000;fill-opacity:1;"><g transform="translate(193.422971, 192.905775)"><path style="stroke:none" d="M 3.671875 11.53125 C 2.941406 11.53125 2.28125 11.304688 1.6875 10.859375 C 1.101562 10.410156 0.632812 9.800781 0.28125 9.03125 C -0.0625 8.269531 -0.234375 7.414062 -0.234375 6.46875 C -0.234375 5.039062 0.144531 3.785156 0.90625 2.703125 L 0 2.359375 L 0 1.6875 L 4.171875 0.515625 L 4.390625 1.1875 C 3.171875 1.820312 2.238281 2.582031 1.59375 3.46875 C 0.957031 4.363281 0.640625 5.335938 0.640625 6.390625 C 0.640625 7.015625 0.753906 7.570312 0.984375 8.0625 C 1.222656 8.550781 1.546875 8.941406 1.953125 9.234375 C 2.367188 9.523438 2.832031 9.671875 3.34375 9.671875 C 3.894531 9.671875 4.320312 9.492188 4.625 9.140625 C 4.9375 8.785156 5.203125 8.15625 5.421875 7.25 L 6.03125 4.8125 C 6.082031 4.632812 6.148438 4.394531 6.234375 4.09375 C 6.316406 3.789062 6.4375 3.460938 6.59375 3.109375 C 6.757812 2.765625 6.960938 2.4375 7.203125 2.125 C 7.441406 1.8125 7.738281 1.554688 8.09375 1.359375 C 8.457031 1.171875 8.878906 1.078125 9.359375 1.078125 C 9.691406 1.078125 10.039062 1.148438 10.40625 1.296875 C 10.78125 1.453125 11.132812 1.691406 11.46875 2.015625 C 11.8125 2.347656 12.085938 2.773438 12.296875 3.296875 C 12.515625 3.828125 12.625 4.472656 12.625 5.234375 C 12.625 5.929688 12.550781 6.550781 12.40625 7.09375 C 12.269531 7.632812 12.046875 8.160156 11.734375 8.671875 L 12.390625 8.890625 L 12.390625 9.546875 L 9.09375 10.65625 L 8.875 10.078125 C 10.789062 8.828125 11.75 7.335938 11.75 5.609375 C 11.75 5.109375 11.660156 4.65625 11.484375 4.25 C 11.316406 3.84375 11.082031 3.519531 10.78125 3.28125 C 10.488281 3.039062 10.160156 2.921875 9.796875 2.921875 C 9.316406 2.921875 8.921875 3.113281 8.609375 3.5 C 8.296875 3.882812 8.035156 4.519531 7.828125 5.40625 L 7.28125 7.671875 C 7.070312 8.535156 6.820312 9.25 6.53125 9.8125 C 6.25 10.382812 5.882812 10.8125 5.4375 11.09375 C 4.988281 11.382812 4.398438 11.53125 3.671875 11.53125 Z M 3.671875 11.53125 "/></g></g><g style="fill:#000000;fill-opacity:1;"><g transform="translate(193.422971, 204.907597)"><path style="stroke:none" d="M 4.34375 9.5625 C 3.445312 9.5625 2.660156 9.375 1.984375 9 C 1.304688 8.632812 0.78125 8.117188 0.40625 7.453125 C 0.03125 6.796875 -0.15625 6.023438 -0.15625 5.140625 C -0.15625 4.242188 0.03125 3.457031 0.40625 2.78125 C 0.78125 2.113281 1.304688 1.59375 1.984375 1.21875 C 2.671875 0.851562 3.472656 0.671875 4.390625 0.671875 C 4.796875 0.671875 5.257812 0.738281 5.78125 0.875 C 6.300781 1.007812 6.800781 1.234375 7.28125 1.546875 C 7.769531 1.867188 8.175781 2.316406 8.5 2.890625 C 8.820312 3.460938 8.984375 4.191406 8.984375 5.078125 C 8.984375 5.972656 8.820312 6.710938 8.5 7.296875 C 8.175781 7.890625 7.769531 8.347656 7.28125 8.671875 C 6.800781 9.003906 6.296875 9.234375 5.765625 9.359375 C 5.242188 9.492188 4.769531 9.5625 4.34375 9.5625 Z M 4.25 7.71875 C 5.5 7.71875 6.476562 7.484375 7.1875 7.015625 C 7.894531 6.554688 8.25 5.914062 8.25 5.09375 C 8.25 4.3125 7.898438 3.6875 7.203125 3.21875 C 6.515625 2.757812 5.585938 2.53125 4.421875 2.53125 C 3.191406 2.53125 2.238281 2.757812 1.5625 3.21875 C 0.894531 3.675781 0.5625 4.328125 0.5625 5.171875 C 0.5625 5.960938 0.890625 6.582031 1.546875 7.03125 C 2.203125 7.488281 3.101562 7.71875 4.25 7.71875 Z M 4.25 7.71875 "/></g></g><g style="fill:#000000;fill-opacity:1;"><g transform="translate(193.422971, 215.090961)"><path style="stroke:none" d="M 7.96875 8.125 C 7.675781 8.125 7.4375 8.023438 7.25 7.828125 C 7.0625 7.640625 6.96875 7.394531 6.96875 7.09375 C 6.96875 6.769531 7.078125 6.460938 7.296875 6.171875 C 7.398438 6.003906 7.46875 5.875 7.5 5.78125 C 7.539062 5.6875 7.5625 5.5625 7.5625 5.40625 C 7.5625 5.132812 7.484375 4.867188 7.328125 4.609375 C 7.171875 4.347656 6.910156 4.054688 6.546875 3.734375 L 2.09375 3.734375 C 1.59375 3.734375 1.226562 3.816406 1 3.984375 C 0.769531 4.160156 0.628906 4.453125 0.578125 4.859375 L 0.546875 5.3125 L 0 5.3125 L 0 0.421875 L 0.546875 0.421875 L 0.578125 0.875 C 0.628906 1.269531 0.769531 1.554688 1 1.734375 C 1.226562 1.910156 1.59375 2 2.09375 2 L 6.359375 2 C 6.910156 2 7.289062 1.910156 7.5 1.734375 C 7.71875 1.566406 7.84375 1.253906 7.875 0.796875 L 7.90625 0.359375 L 8.453125 0.359375 C 8.492188 0.867188 8.535156 1.316406 8.578125 1.703125 C 8.628906 2.085938 8.710938 2.554688 8.828125 3.109375 L 8.828125 3.734375 L 7.359375 3.734375 C 7.546875 3.960938 7.765625 4.21875 8.015625 4.5 C 8.273438 4.78125 8.5 5.109375 8.6875 5.484375 C 8.882812 5.867188 8.984375 6.304688 8.984375 6.796875 C 8.984375 7.191406 8.890625 7.507812 8.703125 7.75 C 8.515625 8 8.269531 8.125 7.96875 8.125 Z M 7.96875 8.125 "/></g></g><g style="fill:#000000;fill-opacity:1;"><g transform="translate(193.422971, 223.092175)"><path style="stroke:none" d="M 0 5.234375 L 0 0.359375 L 0.546875 0.359375 L 0.578125 0.8125 C 0.628906 1.21875 0.769531 1.507812 1 1.6875 C 1.226562 1.863281 1.59375 1.953125 2.09375 1.953125 L 6.359375 1.953125 C 6.910156 1.953125 7.285156 1.867188 7.484375 1.703125 C 7.691406 1.535156 7.820312 1.21875 7.875 0.75 L 7.90625 0.375 L 8.453125 0.375 C 8.492188 0.863281 8.539062 1.289062 8.59375 1.65625 C 8.644531 2.03125 8.722656 2.5 8.828125 3.0625 L 8.828125 3.671875 L 2.09375 3.671875 C 1.59375 3.671875 1.226562 3.753906 1 3.921875 C 0.769531 4.097656 0.628906 4.390625 0.578125 4.796875 L 0.546875 5.234375 Z M 11.453125 3.84375 C 11.160156 3.84375 10.910156 3.734375 10.703125 3.515625 C 10.492188 3.304688 10.390625 3.054688 10.390625 2.765625 C 10.390625 2.472656 10.492188 2.21875 10.703125 2 C 10.910156 1.789062 11.160156 1.6875 11.453125 1.6875 C 11.753906 1.6875 12.007812 1.789062 12.21875 2 C 12.425781 2.21875 12.53125 2.476562 12.53125 2.78125 C 12.53125 3.0625 12.421875 3.304688 12.203125 3.515625 C 11.992188 3.734375 11.742188 3.84375 11.453125 3.84375 Z M 11.453125 3.84375 "/></g></g><g style="fill:#000000;fill-opacity:1;"><g transform="translate(193.422971, 228.547551)"><path style="stroke:none" d="M 0 11.796875 L 0 6.90625 L 0.546875 6.90625 L 0.578125 7.359375 C 0.628906 7.765625 0.769531 8.054688 1 8.234375 C 1.226562 8.410156 1.59375 8.5 2.09375 8.5 L 6.296875 8.5 C 7.503906 8.5 8.109375 7.984375 8.109375 6.953125 C 8.109375 5.929688 7.597656 4.859375 6.578125 3.734375 L 2.09375 3.734375 C 1.59375 3.734375 1.226562 3.816406 1 3.984375 C 0.769531 4.160156 0.628906 4.453125 0.578125 4.859375 L 0.546875 5.3125 L 0 5.3125 L 0 0.421875 L 0.546875 0.421875 L 0.578125 0.875 C 0.628906 1.269531 0.769531 1.554688 1 1.734375 C 1.226562 1.910156 1.59375 2 2.09375 2 L 6.359375 2 C 6.910156 2 7.289062 1.910156 7.5 1.734375 C 7.71875 1.566406 7.84375 1.253906 7.875 0.796875 L 7.90625 0.359375 L 8.453125 0.359375 C 8.492188 0.867188 8.535156 1.316406 8.578125 1.703125 C 8.628906 2.085938 8.710938 2.554688 8.828125 3.109375 L 8.828125 3.734375 L 7.390625 3.734375 C 7.953125 4.367188 8.359375 4.976562 8.609375 5.5625 C 8.859375 6.144531 8.984375 6.78125 8.984375 7.46875 C 8.984375 8.332031 8.769531 9.003906 8.34375 9.484375 C 7.925781 9.972656 7.335938 10.21875 6.578125 10.21875 L 2.09375 10.21875 C 1.59375 10.21875 1.226562 10.304688 1 10.484375 C 0.769531 10.660156 0.628906 10.945312 0.578125 11.34375 L 0.546875 11.796875 Z M 0 11.796875 "/></g></g><g style="fill:#000000;fill-opacity:1;"><g transform="translate(193.422971, 240.549373)"><path style="stroke:none" d="M 0.546875 10.671875 C 0.078125 10.191406 -0.15625 9.566406 -0.15625 8.796875 C -0.15625 8.265625 -0.046875 7.832031 0.171875 7.5 C 0.398438 7.175781 0.753906 6.929688 1.234375 6.765625 C 0.722656 6.160156 0.363281 5.601562 0.15625 5.09375 C -0.0507812 4.59375 -0.15625 4.039062 -0.15625 3.4375 C -0.15625 2.625 0.0507812 1.953125 0.46875 1.421875 C 0.894531 0.898438 1.4375 0.640625 2.09375 0.640625 C 2.601562 0.640625 3.03125 0.785156 3.375 1.078125 C 3.71875 1.378906 4 1.769531 4.21875 2.25 C 4.4375 2.726562 4.601562 3.242188 4.71875 3.796875 C 4.84375 4.347656 4.9375 4.882812 5 5.40625 C 5.070312 5.9375 5.128906 6.390625 5.171875 6.765625 L 6.625 6.765625 C 7.113281 6.765625 7.503906 6.570312 7.796875 6.1875 C 8.097656 5.8125 8.25 5.300781 8.25 4.65625 C 8.25 4.144531 8.160156 3.707031 7.984375 3.34375 C 7.804688 2.988281 7.582031 2.8125 7.3125 2.8125 L 6.796875 2.84375 C 6.546875 2.84375 6.328125 2.75 6.140625 2.5625 C 5.960938 2.382812 5.875 2.164062 5.875 1.90625 C 5.875 1.675781 5.953125 1.472656 6.109375 1.296875 C 6.265625 1.117188 6.453125 1.03125 6.671875 1.03125 C 7.023438 1.03125 7.34375 1.148438 7.625 1.390625 C 7.914062 1.640625 8.160156 1.960938 8.359375 2.359375 C 8.554688 2.753906 8.707031 3.179688 8.8125 3.640625 C 8.925781 4.097656 8.984375 4.550781 8.984375 5 C 8.984375 5.363281 8.941406 5.75 8.859375 6.15625 C 8.785156 6.5625 8.648438 6.941406 8.453125 7.296875 C 8.265625 7.660156 7.992188 7.953125 7.640625 8.171875 C 7.285156 8.390625 6.835938 8.5 6.296875 8.5 L 2.4375 8.5 C 2.144531 8.5 1.863281 8.507812 1.59375 8.53125 C 1.320312 8.5625 1.097656 8.648438 0.921875 8.796875 C 0.742188 8.941406 0.65625 9.179688 0.65625 9.515625 C 0.65625 9.773438 0.773438 10.046875 1.015625 10.328125 Z M 2.0625 6.765625 L 4.53125 6.765625 C 4.40625 5.390625 4.148438 4.332031 3.765625 3.59375 C 3.378906 2.851562 2.882812 2.484375 2.28125 2.484375 C 1.84375 2.484375 1.46875 2.640625 1.15625 2.953125 C 0.851562 3.265625 0.703125 3.640625 0.703125 4.078125 C 0.703125 4.535156 0.804688 4.96875 1.015625 5.375 C 1.222656 5.789062 1.570312 6.253906 2.0625 6.765625 Z M 2.0625 6.765625 "/></g></g><g style="fill:#000000;fill-opacity:1;"><g transform="translate(106.623601, 315.564222)"><path style="stroke:none" d="M 7.359375 0 C 6.019531 0 4.875 -0.25 3.925781 -0.75 C 2.976562 -1.25 2.253906 -1.972656 1.761719 -2.914062 C 1.269531 -3.855469 1.023438 -4.96875 1.023438 -6.253906 L 1.023438 -8.339844 L 3.011719 -8.339844 L 3.011719 -6.253906 C 3.011719 -4.851562 3.382812 -3.789062 4.125 -3.070312 C 4.863281 -2.351562 5.941406 -1.992188 7.359375 -1.992188 L 9.382812 -1.992188 L 9.382812 -4.765625 C 9.382812 -6.023438 9.601562 -7.070312 10.039062 -7.90625 C 10.476562 -8.746094 11.117188 -9.375 11.964844 -9.792969 C 12.808594 -10.214844 13.839844 -10.425781 15.054688 -10.425781 L 17.652344 -10.425781 L 17.652344 0 L 15.648438 0 L 15.648438 -8.476562 L 15.085938 -8.476562 C 13.808594 -8.476562 12.867188 -8.179688 12.269531 -7.589844 C 11.671875 -7 11.375 -6.0625 11.375 -4.773438 L 11.375 0 Z M 5.953125 4.160156 C 5.628906 4.160156 5.347656 4.042969 5.109375 3.804688 C 4.871094 3.570312 4.753906 3.285156 4.753906 2.949219 C 4.753906 2.625 4.871094 2.34375 5.109375 2.105469 C 5.347656 1.871094 5.628906 1.75 5.953125 1.75 C 6.285156 1.75 6.574219 1.871094 6.8125 2.109375 C 7.054688 2.347656 7.171875 2.628906 7.171875 2.953125 C 7.171875 3.277344 7.050781 3.558594 6.808594 3.800781 C 6.566406 4.039062 6.28125 4.160156 5.953125 4.160156 Z M 9.574219 4.160156 C 9.246094 4.160156 8.964844 4.042969 8.726562 3.804688 C 8.492188 3.570312 8.371094 3.285156 8.371094 2.949219 C 8.371094 2.625 8.492188 2.34375 8.726562 2.105469 C 8.964844 1.871094 9.246094 1.75 9.574219 1.75 C 9.898438 1.75 10.179688 1.871094 10.421875 2.109375 C 10.660156 2.347656 10.78125 2.628906 10.78125 2.953125 C 10.78125 3.277344 10.660156 3.558594 10.421875 3.800781 C 10.179688 4.039062 9.898438 4.160156 9.574219 4.160156 Z M 9.574219 4.160156 "/></g></g><g style="fill:#000000;fill-opacity:1;"><g transform="translate(125.594297, 315.564222)"><path style="stroke:none" d="M 0.0507812 4.742188 C -0.164062 4.742188 -0.410156 4.722656 -0.6875 4.675781 C -0.964844 4.628906 -1.207031 4.574219 -1.40625 4.503906 L -0.855469 2.636719 C -0.597656 2.734375 -0.3125 2.785156 0 2.785156 C 0.777344 2.785156 1.332031 2.554688 1.65625 2.101562 C 1.984375 1.644531 2.148438 0.933594 2.148438 -0.03125 L 2.148438 -10.425781 L 4.140625 -10.4375 L 4.140625 -0.0195312 C 4.140625 1.027344 3.980469 1.90625 3.664062 2.613281 C 3.347656 3.316406 2.886719 3.847656 2.277344 4.207031 C 1.667969 4.566406 0.929688 4.742188 0.0507812 4.742188 Z M 0.0507812 4.742188 "/></g></g><g style="fill:#000000;fill-opacity:1;"><g transform="translate(131.056189, 315.564222)"><path style="stroke:none" d="M 5.328125 0 C 4.582031 0 3.9375 -0.171875 3.394531 -0.511719 C 2.847656 -0.851562 2.429688 -1.328125 2.136719 -1.945312 C 1.84375 -2.558594 1.699219 -3.277344 1.699219 -4.097656 L 1.699219 -16.265625 L 3.691406 -16.265625 L 3.691406 -4.097656 C 3.691406 -3.4375 3.828125 -2.921875 4.101562 -2.550781 C 4.378906 -2.175781 4.785156 -1.992188 5.328125 -1.992188 L 5.847656 -1.992188 L 5.847656 0 Z M 5.328125 0 "/></g></g><g style="fill:#000000;fill-opacity:1;"><g transform="translate(136.705709, 315.564222)"><path style="stroke:none" d="M -0.207031 -1.992188 L 3.316406 -1.992188 C 2.757812 -2.378906 2.316406 -2.882812 1.984375 -3.503906 C 1.65625 -4.121094 1.492188 -4.796875 1.492188 -5.527344 C 1.492188 -6.410156 1.710938 -7.230469 2.152344 -7.976562 C 2.59375 -8.726562 3.203125 -9.324219 3.976562 -9.761719 C 4.753906 -10.203125 5.609375 -10.425781 6.546875 -10.425781 C 7.519531 -10.425781 8.40625 -10.1875 9.199219 -9.714844 C 9.996094 -9.242188 10.621094 -8.597656 11.078125 -7.78125 C 11.53125 -6.964844 11.761719 -6.058594 11.761719 -5.054688 L 11.761719 -1.992188 L 13.792969 -1.992188 L 13.792969 0 L -0.207031 0 Z M 9.757812 -1.992188 L 9.757812 -5.210938 C 9.757812 -5.796875 9.617188 -6.335938 9.328125 -6.832031 C 9.042969 -7.324219 8.65625 -7.714844 8.160156 -8.003906 C 7.667969 -8.289062 7.132812 -8.433594 6.546875 -8.433594 C 5.964844 -8.433594 5.425781 -8.289062 4.933594 -8 C 4.4375 -7.714844 4.046875 -7.320312 3.757812 -6.828125 C 3.46875 -6.332031 3.324219 -5.796875 3.324219 -5.210938 C 3.324219 -4.628906 3.46875 -4.089844 3.757812 -3.597656 C 4.046875 -3.101562 4.4375 -2.710938 4.929688 -2.425781 C 5.425781 -2.136719 5.964844 -1.992188 6.546875 -1.992188 Z M 4.640625 -11.738281 C 4.316406 -11.738281 4.035156 -11.859375 3.796875 -12.09375 C 3.558594 -12.332031 3.441406 -12.613281 3.441406 -12.9375 C 3.441406 -13.277344 3.558594 -13.566406 3.796875 -13.804688 C 4.035156 -14.039062 4.316406 -14.15625 4.640625 -14.15625 C 4.972656 -14.15625 5.257812 -14.039062 5.496094 -13.796875 C 5.730469 -13.558594 5.847656 -13.273438 5.847656 -12.9375 C 5.847656 -12.613281 5.730469 -12.332031 5.496094 -12.09375 C 5.257812 -11.859375 4.972656 -11.738281 4.640625 -11.738281 Z M 8.394531 -11.738281 C 8.066406 -11.738281 7.785156 -11.859375 7.550781 -12.09375 C 7.3125 -12.332031 7.195312 -12.613281 7.195312 -12.9375 C 7.195312 -13.277344 7.3125 -13.566406 7.550781 -13.804688 C 7.785156 -14.039062 8.066406 -14.15625 8.394531 -14.15625 C 8.726562 -14.15625 9.011719 -14.039062 9.246094 -13.796875 C 9.484375 -13.558594 9.601562 -13.273438 9.601562 -12.9375 C 9.601562 -12.613281 9.484375 -12.332031 9.246094 -12.09375 C 9.011719 -11.859375 8.726562 -11.738281 8.394531 -11.738281 Z M 8.394531 -11.738281 "/></g></g><g style="fill:#000000;fill-opacity:1;"><g transform="translate(150.2979, 315.564222)"><path style="stroke:none" d="M -0.207031 -1.992188 L 4.660156 -1.992188 L 1.355469 -6.933594 L 1.355469 -10.425781 L 9.183594 -10.425781 C 10.03125 -10.425781 10.765625 -10.328125 11.386719 -10.128906 C 12.003906 -9.929688 12.488281 -9.613281 12.839844 -9.175781 C 13.191406 -8.738281 13.367188 -8.164062 13.367188 -7.453125 C 13.367188 -6.945312 13.242188 -6.429688 12.992188 -5.902344 C 12.738281 -5.371094 12.421875 -4.859375 12.03125 -4.359375 C 11.640625 -3.859375 11.140625 -3.28125 10.53125 -2.628906 L 9.9375 -1.992188 L 14.929688 -1.992188 L 14.941406 0 L -0.207031 0 Z M 7.640625 -1.992188 C 7.792969 -2.152344 7.949219 -2.3125 8.101562 -2.472656 C 8.253906 -2.628906 8.402344 -2.792969 8.550781 -2.960938 C 9.425781 -3.898438 10.078125 -4.660156 10.503906 -5.25 C 10.929688 -5.835938 11.144531 -6.371094 11.144531 -6.851562 C 11.144531 -7.28125 11.042969 -7.609375 10.835938 -7.839844 C 10.632812 -8.070312 10.34375 -8.226562 9.972656 -8.308594 C 9.601562 -8.394531 9.113281 -8.433594 8.507812 -8.433594 L 3.691406 -8.433594 L 3.691406 -7.039062 L 7.027344 -1.992188 Z M 7.640625 -1.992188 "/></g></g><g style="fill:#000000;fill-opacity:1;"><g transform="translate(165.036681, 315.564222)"><path style="stroke:none" d="M -0.207031 -1.992188 L 0.355469 -1.992188 C 0.902344 -1.992188 1.3125 -2.175781 1.585938 -2.550781 C 1.855469 -2.921875 1.992188 -3.4375 1.992188 -4.097656 L 1.992188 -16.265625 L 3.992188 -16.265625 L 3.992188 -4.097656 C 3.992188 -3.277344 3.847656 -2.558594 3.554688 -1.945312 C 3.261719 -1.328125 2.84375 -0.851562 2.292969 -0.511719 C 1.746094 -0.171875 1.097656 0 0.355469 0 L -0.207031 0 Z M -0.207031 -1.992188 "/></g></g><g style="fill:#000000;fill-opacity:1;"><g transform="translate(170.811281, 315.564222)"><path style="stroke:none" d="M 1.699219 -16.265625 L 3.691406 -16.265625 L 3.691406 0 L 1.699219 0 Z M 1.699219 -16.265625 "/></g></g><g style="fill:#000000;fill-opacity:1;"><g transform="translate(176.189786, 315.564222)"><path style="stroke:none" d=""/></g></g><g style="fill:#000000;fill-opacity:1;"><g transform="translate(181.881, 315.564222)"><path style="stroke:none" d="M 9.726562 4.734375 C 6.898438 4.734375 4.738281 4 3.253906 2.535156 C 1.765625 1.066406 1.023438 -1.074219 1.023438 -3.890625 L 1.023438 -7.296875 L 3.011719 -7.296875 L 3.011719 -3.890625 C 3.011719 -2.367188 3.257812 -1.117188 3.742188 -0.140625 C 4.230469 0.835938 4.96875 1.558594 5.957031 2.03125 C 6.949219 2.503906 8.203125 2.742188 9.726562 2.742188 L 11.761719 2.742188 C 12.933594 2.742188 13.820312 2.523438 14.414062 2.085938 C 15.007812 1.648438 15.304688 1.027344 15.304688 0.230469 L 15.304688 0 L 12.09375 0 C 11.148438 0 10.277344 -0.234375 9.476562 -0.699219 C 8.675781 -1.164062 8.046875 -1.796875 7.578125 -2.597656 C 7.113281 -3.394531 6.882812 -4.265625 6.882812 -5.210938 C 6.882812 -6.15625 7.113281 -7.03125 7.578125 -7.828125 C 8.046875 -8.628906 8.675781 -9.261719 9.476562 -9.726562 C 10.277344 -10.191406 11.148438 -10.425781 12.09375 -10.425781 C 13.066406 -10.425781 13.953125 -10.191406 14.746094 -9.722656 C 15.542969 -9.253906 16.167969 -8.609375 16.625 -7.789062 C 17.078125 -6.96875 17.304688 -6.058594 17.304688 -5.054688 L 17.304688 -1.992188 L 19.339844 -1.992188 L 19.339844 0 L 17.296875 0 L 17.296875 0.230469 C 17.296875 1.132812 17.074219 1.921875 16.632812 2.601562 C 16.191406 3.277344 15.558594 3.804688 14.726562 4.175781 C 13.894531 4.546875 12.90625 4.734375 11.761719 4.734375 Z M 15.316406 -1.992188 L 15.316406 -5.210938 C 15.316406 -5.796875 15.171875 -6.335938 14.882812 -6.828125 C 14.59375 -7.324219 14.203125 -7.714844 13.710938 -8 C 13.214844 -8.289062 12.675781 -8.433594 12.09375 -8.433594 C 11.511719 -8.433594 10.972656 -8.289062 10.476562 -8 C 9.984375 -7.714844 9.59375 -7.324219 9.304688 -6.828125 C 9.015625 -6.335938 8.871094 -5.796875 8.871094 -5.210938 C 8.871094 -4.628906 9.015625 -4.089844 9.304688 -3.597656 C 9.59375 -3.101562 9.984375 -2.710938 10.476562 -2.425781 C 10.972656 -2.136719 11.511719 -1.992188 12.09375 -1.992188 Z M 10.238281 -11.738281 C 9.910156 -11.738281 9.628906 -11.859375 9.394531 -12.09375 C 9.15625 -12.328125 9.039062 -12.613281 9.039062 -12.9375 C 9.039062 -13.277344 9.15625 -13.566406 9.394531 -13.804688 C 9.628906 -14.039062 9.910156 -14.15625 10.238281 -14.15625 C 10.570312 -14.15625 10.855469 -14.039062 11.09375 -13.804688 C 11.328125 -13.566406 11.449219 -13.277344 11.449219 -12.9375 C 11.449219 -12.613281 11.328125 -12.328125 11.09375 -12.09375 C 10.855469 -11.859375 10.570312 -11.738281 10.238281 -11.738281 Z M 13.992188 -11.738281 C 13.664062 -11.738281 13.382812 -11.859375 13.148438 -12.09375 C 12.910156 -12.328125 12.792969 -12.613281 12.792969 -12.9375 C 12.792969 -13.277344 12.910156 -13.566406 13.148438 -13.804688 C 13.382812 -14.039062 13.664062 -14.15625 13.992188 -14.15625 C 14.324219 -14.15625 14.609375 -14.039062 14.847656 -13.804688 C 15.082031 -13.566406 15.199219 -13.277344 15.199219 -12.9375 C 15.199219 -12.613281 15.082031 -12.328125 14.847656 -12.09375 C 14.609375 -11.859375 14.324219 -11.738281 13.992188 -11.738281 Z M 13.992188 -11.738281 "/></g></g><g style="fill:#000000;fill-opacity:1;"><g transform="translate(201.018469, 315.564222)"><path style="stroke:none" d="M -0.207031 -1.992188 L 1.023438 -1.992188 C 1.578125 -1.992188 2 -2.179688 2.289062 -2.554688 C 2.578125 -2.929688 2.722656 -3.445312 2.722656 -4.097656 L 2.722656 -10.425781 L 4.722656 -10.425781 L 4.722656 -4.097656 C 4.722656 -3.285156 4.570312 -2.566406 4.265625 -1.949219 C 3.957031 -1.332031 3.527344 -0.851562 2.972656 -0.511719 C 2.414062 -0.171875 1.765625 0 1.023438 0 L -0.207031 0 Z M 1.921875 4.160156 C 1.59375 4.160156 1.3125 4.042969 1.074219 3.804688 C 0.839844 3.570312 0.71875 3.285156 0.71875 2.949219 C 0.71875 2.625 0.839844 2.34375 1.074219 2.105469 C 1.3125 1.871094 1.59375 1.75 1.921875 1.75 C 2.246094 1.75 2.527344 1.871094 2.769531 2.109375 C 3.007812 2.347656 3.128906 2.628906 3.128906 2.953125 C 3.128906 3.277344 3.007812 3.558594 2.769531 3.800781 C 2.527344 4.039062 2.246094 4.160156 1.921875 4.160156 Z M 5.453125 4.160156 C 5.128906 4.160156 4.847656 4.042969 4.609375 3.804688 C 4.371094 3.570312 4.253906 3.285156 4.253906 2.949219 C 4.253906 2.625 4.371094 2.34375 4.609375 2.105469 C 4.847656 1.871094 5.128906 1.75 5.453125 1.75 C 5.78125 1.75 6.0625 1.871094 6.300781 2.109375 C 6.542969 2.347656 6.660156 2.628906 6.660156 2.953125 C 6.660156 3.277344 6.542969 3.558594 6.300781 3.800781 C 6.0625 4.039062 5.78125 4.160156 5.453125 4.160156 Z M 5.453125 4.160156 "/></g></g><g style="fill:#000000;fill-opacity:1;"><g transform="translate(207.418469, 315.564222)"><path style="stroke:none" d="M 6.347656 4.742188 C 5.472656 4.742188 4.636719 4.5625 3.84375 4.195312 C 3.046875 3.832031 2.402344 3.324219 1.90625 2.679688 L 3.316406 1.367188 C 3.640625 1.789062 4.078125 2.125 4.625 2.378906 C 5.167969 2.628906 5.734375 2.753906 6.316406 2.753906 C 6.921875 2.753906 7.453125 2.625 7.910156 2.367188 C 8.371094 2.109375 8.734375 1.769531 9.003906 1.34375 C 9.269531 0.921875 9.433594 0.472656 9.488281 0 L 6.515625 0 C 5.480469 0 4.542969 -0.226562 3.707031 -0.683594 C 2.867188 -1.136719 2.210938 -1.765625 1.734375 -2.570312 C 1.261719 -3.371094 1.023438 -4.269531 1.023438 -5.265625 C 1.023438 -6.207031 1.253906 -7.082031 1.71875 -7.886719 C 2.183594 -8.691406 2.816406 -9.328125 3.621094 -9.789062 C 4.425781 -10.253906 5.304688 -10.488281 6.253906 -10.488281 C 7.277344 -10.488281 8.183594 -10.25 8.976562 -9.769531 C 9.769531 -9.289062 10.386719 -8.621094 10.832031 -7.765625 C 11.277344 -6.914062 11.5 -5.9375 11.5 -4.847656 L 11.5 -1.992188 L 13.1875 -1.992188 L 13.1875 0 L 11.480469 0 C 11.394531 0.875 11.136719 1.671875 10.703125 2.386719 C 10.265625 3.101562 9.675781 3.675781 8.925781 4.101562 C 8.179688 4.53125 7.320312 4.742188 6.347656 4.742188 Z M 9.496094 -1.992188 L 9.496094 -5.003906 C 9.496094 -5.6875 9.363281 -6.292969 9.089844 -6.820312 C 8.820312 -7.347656 8.441406 -7.757812 7.953125 -8.054688 C 7.464844 -8.347656 6.898438 -8.496094 6.257812 -8.496094 C 5.664062 -8.496094 5.121094 -8.351562 4.628906 -8.0625 C 4.136719 -7.777344 3.742188 -7.382812 3.449219 -6.886719 C 3.160156 -6.390625 3.011719 -5.851562 3.011719 -5.269531 C 3.011719 -4.621094 3.160156 -4.046875 3.457031 -3.554688 C 3.75 -3.0625 4.164062 -2.675781 4.695312 -2.402344 C 5.226562 -2.128906 5.832031 -1.992188 6.515625 -1.992188 Z M 9.496094 -1.992188 "/></g></g><g style="fill:#000000;fill-opacity:1;"><g transform="translate(220.406099, 315.564222)"><path style="stroke:none" d="M -0.207031 -1.992188 L 0.3125 -1.992188 C 0.863281 -1.992188 1.273438 -2.175781 1.546875 -2.550781 C 1.824219 -2.921875 1.960938 -3.4375 1.960938 -4.097656 L 1.960938 -10.425781 L 3.953125 -10.425781 L 3.953125 -4.378906 C 3.953125 -3.621094 4.132812 -3.035156 4.5 -2.617188 C 4.863281 -2.199219 5.324219 -1.992188 5.878906 -1.992188 C 6.4375 -1.992188 6.898438 -2.199219 7.261719 -2.617188 C 7.625 -3.035156 7.808594 -3.621094 7.808594 -4.378906 L 7.808594 -10.425781 L 9.800781 -10.425781 L 9.800781 -4.378906 C 9.800781 -3.621094 9.984375 -3.035156 10.347656 -2.617188 C 10.710938 -2.199219 11.171875 -1.992188 11.730469 -1.992188 C 12.285156 -1.992188 12.746094 -2.199219 13.109375 -2.617188 C 13.476562 -3.035156 13.65625 -3.621094 13.65625 -4.378906 L 13.65625 -10.425781 L 15.648438 -10.425781 L 15.648438 -4.097656 C 15.648438 -3.4375 15.785156 -2.921875 16.0625 -2.550781 C 16.335938 -2.175781 16.746094 -1.992188 17.296875 -1.992188 L 17.816406 -1.992188 L 17.816406 0 L 17.296875 0 C 16.039062 0 15.136719 -0.515625 14.597656 -1.542969 C 14.269531 -1.042969 13.859375 -0.660156 13.371094 -0.394531 C 12.882812 -0.132812 12.332031 0 11.730469 0 C 11.097656 0 10.527344 -0.144531 10.019531 -0.4375 C 9.511719 -0.730469 9.109375 -1.148438 8.808594 -1.6875 C 8.503906 -1.148438 8.097656 -0.730469 7.589844 -0.4375 C 7.082031 -0.144531 6.511719 0 5.878906 0 C 5.269531 0 4.714844 -0.132812 4.222656 -0.394531 C 3.730469 -0.660156 3.324219 -1.046875 3.011719 -1.554688 C 2.484375 -0.519531 1.585938 0 0.3125 0 L -0.207031 0 Z M -0.207031 -1.992188 "/></g></g><g style="fill:#000000;fill-opacity:1;"><g transform="translate(238.021752, 315.564222)"><path style="stroke:none" d="M -0.207031 -1.992188 L 1.15625 -1.992188 C 1.707031 -1.992188 2.117188 -2.175781 2.394531 -2.550781 C 2.667969 -2.921875 2.804688 -3.4375 2.804688 -4.097656 L 2.804688 -10.425781 L 4.796875 -10.425781 L 4.796875 -4.097656 C 4.796875 -3.4375 4.933594 -2.921875 5.207031 -2.550781 C 5.480469 -2.175781 5.894531 -1.992188 6.441406 -1.992188 L 7.808594 -1.992188 L 7.808594 0 L 6.441406 0 C 5.253906 0 4.375 -0.472656 3.804688 -1.417969 C 3.222656 -0.472656 2.339844 0 1.15625 0 L -0.207031 0 Z M 2.0625 -11.574219 C 1.738281 -11.574219 1.457031 -11.691406 1.222656 -11.929688 C 0.984375 -12.164062 0.867188 -12.445312 0.867188 -12.769531 C 0.867188 -13.113281 0.984375 -13.402344 1.222656 -13.632812 C 1.457031 -13.863281 1.738281 -13.980469 2.0625 -13.980469 C 2.398438 -13.980469 2.683594 -13.863281 2.917969 -13.625 C 3.15625 -13.390625 3.273438 -13.105469 3.273438 -12.769531 C 3.273438 -12.445312 3.15625 -12.164062 2.917969 -11.929688 C 2.683594 -11.691406 2.398438 -11.574219 2.0625 -11.574219 Z M 5.578125 -11.574219 C 5.253906 -11.574219 4.972656 -11.691406 4.734375 -11.929688 C 4.496094 -12.164062 4.378906 -12.445312 4.378906 -12.769531 C 4.378906 -13.113281 4.496094 -13.402344 4.734375 -13.632812 C 4.972656 -13.863281 5.253906 -13.980469 5.578125 -13.980469 C 5.917969 -13.980469 6.207031 -13.863281 6.4375 -13.632812 C 6.671875 -13.402344 6.785156 -13.113281 6.785156 -12.769531 C 6.785156 -12.445312 6.671875 -12.164062 6.4375 -11.929688 C 6.207031 -11.691406 5.917969 -11.574219 5.578125 -11.574219 Z M 5.578125 -11.574219 "/></g></g><g style="fill:#000000;fill-opacity:1;"><g transform="translate(245.630876, 315.564222)"><path style="stroke:none" d="M -0.207031 -1.992188 L 0.394531 -1.992188 C 0.9375 -1.992188 1.347656 -2.175781 1.621094 -2.550781 C 1.894531 -2.921875 2.03125 -3.4375 2.03125 -4.097656 L 2.03125 -16.265625 L 4.023438 -16.265625 L 4.023438 -4.097656 C 4.023438 -3.4375 4.160156 -2.921875 4.4375 -2.550781 C 4.710938 -2.175781 5.121094 -1.992188 5.671875 -1.992188 L 6.265625 -1.992188 L 6.265625 0 L 5.671875 0 C 4.484375 0 3.605469 -0.472656 3.035156 -1.417969 C 2.449219 -0.472656 1.570312 0 0.394531 0 L -0.207031 0 Z M -0.207031 -1.992188 "/></g></g><g style="fill:#000000;fill-opacity:1;"><g transform="translate(251.697329, 315.564222)"><path style="stroke:none" d="M -0.207031 -1.992188 L 0.355469 -1.992188 C 0.902344 -1.992188 1.3125 -2.175781 1.585938 -2.550781 C 1.855469 -2.921875 1.992188 -3.4375 1.992188 -4.097656 L 1.992188 -16.265625 L 3.992188 -16.265625 L 3.992188 -4.097656 C 3.992188 -3.277344 3.847656 -2.558594 3.554688 -1.945312 C 3.261719 -1.328125 2.84375 -0.851562 2.292969 -0.511719 C 1.746094 -0.171875 1.097656 0 0.355469 0 L -0.207031 0 Z M -0.207031 -1.992188 "/></g></g><g style="fill:#000000;fill-opacity:1;"><g transform="translate(139.552283, 284.27371)"><path style="stroke:none" d="M 2.734375 -20.75 L 5.15625 -20.75 L 5.15625 -2.140625 L 8.765625 -2.140625 C 8.859375 -2.140625 8.90625 -2.101562 8.90625 -2.03125 L 8.90625 -0.140625 C 8.90625 -0.046875 8.859375 0 8.765625 0 L 2.734375 0 Z M 2.734375 -20.75 "/></g></g><g style="fill:#000000;fill-opacity:1;"><g transform="translate(148.176635, 284.27371)"><path style="stroke:none" d="M -0.140625 0 C -0.222656 0 -0.265625 -0.046875 -0.265625 -0.140625 L -0.265625 -2.03125 C -0.265625 -2.101562 -0.222656 -2.140625 -0.140625 -2.140625 L 3.46875 -2.140625 L 3.46875 -13.25 L 5.890625 -13.25 L 5.890625 -2.140625 L 9.453125 -2.140625 C 9.546875 -2.140625 9.59375 -2.101562 9.59375 -2.03125 L 9.59375 -0.140625 C 9.59375 -0.046875 9.546875 0 9.453125 0 Z M 4.59375 -15.84375 C 4.125 -15.84375 3.75 -15.984375 3.46875 -16.265625 C 3.195312 -16.554688 3.0625 -16.960938 3.0625 -17.484375 C 3.0625 -18.003906 3.195312 -18.40625 3.46875 -18.6875 C 3.738281 -18.976562 4.113281 -19.125 4.59375 -19.125 C 5.082031 -19.125 5.457031 -18.972656 5.71875 -18.671875 C 5.988281 -18.378906 6.125 -17.984375 6.125 -17.484375 C 6.125 -16.984375 5.988281 -16.582031 5.71875 -16.28125 C 5.457031 -15.988281 5.082031 -15.84375 4.59375 -15.84375 Z M 4.59375 -15.84375 "/></g></g><g style="fill:#000000;fill-opacity:1;"><g transform="translate(157.4808, 284.27371)"><path style="stroke:none" d="M -0.140625 0 C -0.222656 0 -0.265625 -0.046875 -0.265625 -0.140625 L -0.265625 -2.03125 C -0.265625 -2.101562 -0.222656 -2.140625 -0.140625 -2.140625 L 5.109375 -2.140625 L 5.109375 -13.25 L 7.53125 -13.25 L 7.53125 0 Z M 1.640625 5.46875 C 1.210938 5.46875 0.847656 5.335938 0.546875 5.078125 C 0.253906 4.816406 0.109375 4.398438 0.109375 3.828125 C 0.109375 3.242188 0.253906 2.820312 0.546875 2.5625 C 0.847656 2.3125 1.210938 2.1875 1.640625 2.1875 C 2.109375 2.1875 2.476562 2.328125 2.75 2.609375 C 3.03125 2.890625 3.171875 3.296875 3.171875 3.828125 C 3.171875 4.347656 3.035156 4.75 2.765625 5.03125 C 2.492188 5.320312 2.117188 5.46875 1.640625 5.46875 Z M 6.375 5.46875 C 5.894531 5.46875 5.515625 5.320312 5.234375 5.03125 C 4.960938 4.75 4.828125 4.347656 4.828125 3.828125 C 4.828125 3.304688 4.960938 2.898438 5.234375 2.609375 C 5.503906 2.328125 5.882812 2.1875 6.375 2.1875 C 6.851562 2.1875 7.226562 2.332031 7.5 2.625 C 7.769531 2.925781 7.90625 3.328125 7.90625 3.828125 C 7.90625 4.328125 7.769531 4.722656 7.5 5.015625 C 7.226562 5.316406 6.851562 5.46875 6.375 5.46875 Z M 6.375 5.46875 "/></g></g><g style="fill:#000000;fill-opacity:1;"><g transform="translate(167.691388, 284.27371)"><path style="stroke:none" d="M 1.6875 6.5625 C 0.820312 6.5625 -0.101562 6.300781 -1.09375 5.78125 L -0.390625 3.953125 C 0.0546875 4.148438 0.421875 4.273438 0.703125 4.328125 C 0.992188 4.390625 1.304688 4.421875 1.640625 4.421875 C 2.460938 4.421875 3.101562 4.085938 3.5625 3.421875 C 4.019531 2.753906 4.25 1.875 4.25 0.78125 L 4.25 -13.25 L 6.5625 -13.25 L 6.5625 0.65625 C 6.5625 2.5 6.140625 3.941406 5.296875 4.984375 C 4.460938 6.035156 3.257812 6.5625 1.6875 6.5625 Z M 1.6875 6.5625 "/></g></g><g style="fill:#000000;fill-opacity:1;"><g transform="translate(176.569, 284.27371)"><path style="stroke:none" d="M 10.6875 -2.140625 L 10.6875 -11.125 L 9.515625 -11.125 C 7.890625 -11.125 6.625 -10.695312 5.71875 -9.84375 C 4.820312 -8.988281 4.375 -7.789062 4.375 -6.25 C 4.375 -4.832031 4.679688 -3.789062 5.296875 -3.125 C 5.921875 -2.46875 6.859375 -2.140625 8.109375 -2.140625 Z M 13 0.65625 C 13 2.507812 12.445312 3.957031 11.34375 5 C 10.25 6.039062 8.695312 6.5625 6.6875 6.5625 C 4.832031 6.5625 3.195312 6.09375 1.78125 5.15625 L 2.875 3.328125 C 3.457031 3.640625 4.054688 3.898438 4.671875 4.109375 C 5.296875 4.316406 5.988281 4.421875 6.75 4.421875 C 7.988281 4.421875 8.957031 4.085938 9.65625 3.421875 C 10.351562 2.765625 10.703125 1.882812 10.703125 0.78125 L 10.703125 0 L 8.03125 0 C 6.09375 0 4.59375 -0.53125 3.53125 -1.59375 C 2.46875 -2.664062 1.9375 -4.210938 1.9375 -6.234375 C 1.9375 -8.367188 2.613281 -10.070312 3.96875 -11.34375 C 5.332031 -12.613281 7.148438 -13.25 9.421875 -13.25 L 13 -13.25 L 13 -2.140625 L 15.25 -2.140625 C 15.332031 -2.140625 15.375 -2.101562 15.375 -2.03125 L 15.375 -0.140625 C 15.375 -0.046875 15.332031 0 15.25 0 L 13 0 Z M 13 0.65625 "/></g></g><g style="fill:#000000;fill-opacity:1;"><g transform="translate(191.671611, 284.27371)"><path style="stroke:none" d="M 17.671875 0 C 16.847656 0 16.09375 -0.132812 15.40625 -0.40625 C 14.71875 -0.675781 14.003906 -1.175781 13.265625 -1.90625 C 12.867188 -1.34375 12.335938 -0.882812 11.671875 -0.53125 C 11.003906 -0.175781 10.207031 0 9.28125 0 L -0.140625 0 C -0.222656 0 -0.265625 -0.046875 -0.265625 -0.140625 L -0.265625 -2.03125 C -0.265625 -2.101562 -0.222656 -2.140625 -0.140625 -2.140625 L 3.78125 -2.140625 L 3.78125 -11.125 L 6.09375 -11.125 L 6.09375 -2.140625 L 9.046875 -2.140625 C 9.921875 -2.140625 10.601562 -2.425781 11.09375 -3 C 11.582031 -3.582031 11.828125 -4.347656 11.828125 -5.296875 L 11.828125 -11.125 L 14.15625 -11.125 L 14.15625 -4.5625 L 14.125 -4.25 C 14.570312 -3.46875 15.066406 -2.921875 15.609375 -2.609375 C 16.148438 -2.296875 16.835938 -2.140625 17.671875 -2.140625 L 19.34375 -2.140625 L 19.34375 -13.25 L 21.65625 -13.25 L 21.65625 0 Z M 17.671875 0 "/></g></g></g></svg>